<svg width="341" height="113" viewBox="0 0 341 113" fill="none" xmlns="http://www.w3.org/2000/svg">
<path d="M10.5 112C8.9 112 7.7 111.35 6.9 110.05C6.2 108.75 5.85 107.05 5.85 104.95C5.85 102.05 6.3 98.65 7.2 94.75C8.2 90.85 9.4 86.8 10.8 82.6C12.3 78.4 13.8 74.4 15.3 70.6C16.8 66.7 18.1 63.4 19.2 60.7H10.95C10.15 60.7 9.75 60.4 9.75 59.8C9.75 59.2 10.2 58.4 11.1 57.4C12 56.3 13.05 55.35 14.25 54.55C15.45 53.75 16.45 53.35 17.25 53.35H22.35C24.85 47.45 27.2 41.95 29.4 36.85C31.6 31.65 34.35 26.15 37.65 20.35C38.45 18.95 39.2 17.65 39.9 16.45C40.6 15.15 41.4 14 42.3 13C36.9 13.7 31.35 14.75 25.65 16.15C20.05 17.55 15.05 19.35 10.65 21.55C6.25 23.75 3.15 26.35 1.35 29.35C1.25 29.65 1.05 29.8 0.75 29.8C0.55 29.8 0.4 29.6 0.3 29.2C0.0999998 28.8 0.0499998 28.35 0.15 27.85C1.15 25.25 2.4 22.75 3.9 20.35C5.4 17.95 6.85 16.05 8.25 14.65C10.45 12.35 13.45 10.7 17.25 9.69999C21.05 8.69999 24.95 8.04999 28.95 7.74999C33.05 7.45 36.55 7.3 39.45 7.3H69.15C72.65 7.3 75.75 7.2 78.45 6.99999C81.25 6.7 83.6 6.55 85.5 6.55C88.6 6.55 90.4 7.3 90.9 8.8C91 9.2 91.05 9.6 91.05 10C91.15 10.3 91.2 10.7 91.2 11.2C91.2 13.2 90.75 15.5 89.85 18.1C88.95 20.6 87.95 23.05 86.85 25.45C85.85 27.75 85.05 29.65 84.45 31.15C84.35 31.65 84.05 32 83.55 32.2C83.15 32.4 82.75 32.5 82.35 32.5C81.85 32.5 81.4 32.4 81 32.2C80.7 32 80.6 31.35 80.7 30.25C80.9 29.05 81.15 27.7 81.45 26.2C81.75 24.7 81.9 23.4 81.9 22.3C81.9 19.1 80.6 16.65 78 14.95C75.5 13.15 72.35 12.25 68.55 12.25C65.75 12.25 63.45 12.5 61.65 13C59.85 13.4 58.4 14.45 57.3 16.15C53.3 22.05 49.65 28.1 46.35 34.3C43.15 40.5 40.15 46.85 37.35 53.35H76.5C76.8 53.35 76.6 53.95 75.9 55.15C75.3 56.35 74.5 57.6 73.5 58.9C72.6 60.1 71.8 60.7 71.1 60.7H34.05C32.95 63.5 31.65 66.9 30.15 70.9C28.65 74.9 27.25 78.85 25.95 82.75C24.75 86.65 23.8 90 23.1 92.8C22.5 95.2 22.2 97.35 22.2 99.25C22.2 101.75 22.95 103.65 24.45 104.95C26.05 106.25 28.8 106.9 32.7 106.9C38.1 106.9 43.5 106.7 48.9 106.3C54.3 105.8 59.6 104.8 64.8 103.3C69.3 102 73.3 100.25 76.8 98.05C80.4 95.85 83 93.1 84.6 89.8C84.8 89.4 85.1 89.2 85.5 89.2C86.2 89.2 86.55 89.75 86.55 90.85C86.55 91.05 86.5 91.3 86.4 91.6C86.4 91.9 86.35 92.25 86.25 92.65C85.45 95.25 84.5 97.55 83.4 99.55C82.3 101.55 81.15 103.25 79.95 104.65C77.15 108.05 73.55 110.15 69.15 110.95C64.75 111.65 60.35 112 55.95 112H10.5ZM105.797 112.9C102.897 112.9 100.697 111.75 99.1969 109.45C98.4969 108.35 97.9969 107.05 97.6969 105.55C97.3969 104.05 97.2469 102.5 97.2469 100.9C97.2469 99.3 97.3469 97.7 97.5469 96.1C97.7469 94.4 97.9969 92.75 98.2969 91.15C98.7969 88.55 99.3469 86.2 99.9469 84.1C100.647 81.9 101.347 79.8 102.047 77.8V77.65C101.247 79.15 100.247 80.8 99.0469 82.6C97.8469 84.3 96.9969 85.55 96.4969 86.35C95.7969 87.45 95.2469 88 94.8469 88C94.4469 88 94.2469 87.55 94.2469 86.65C94.2469 84.65 94.8469 82.45 96.0469 80.05C96.8469 78.45 97.9469 76.4 99.3469 73.9C100.747 71.3 102.197 68.5 103.697 65.5C105.197 62.5 106.497 59.6 107.597 56.8H97.5469C97.0469 56.8 96.9469 56.4 97.2469 55.6C97.5469 54.8 97.9969 54.05 98.5969 53.35C99.1969 52.55 99.6469 52.15 99.9469 52.15H111.347C112.447 49.55 113.697 46.75 115.097 43.75C116.597 40.75 118.247 37.95 120.047 35.35C121.947 32.65 123.997 30.45 126.197 28.75C128.397 27.05 130.747 26.2 133.247 26.2C134.347 26.2 135.697 26.2 137.297 26.2C138.997 26.2 140.047 26.15 140.447 26.05C138.347 27.45 135.897 30.25 133.097 34.45C130.297 38.55 127.247 44.45 123.947 52.15H139.097C139.397 52.15 139.297 52.55 138.797 53.35C138.297 54.05 137.647 54.8 136.847 55.6C136.147 56.4 135.447 56.8 134.747 56.8H121.847C120.547 60.1 119.097 63.7 117.497 67.6C115.997 71.5 114.597 75.35 113.297 79.15C112.097 82.85 111.197 86.25 110.597 89.35C110.197 91.25 109.997 93 109.997 94.6C109.997 98.4 111.197 100.3 113.597 100.3C115.197 100.3 117.097 99.5 119.297 97.9C121.497 96.3 123.697 94.1 125.897 91.3C127.897 88.7 129.797 85.9 131.597 82.9C133.497 79.9 135.097 77.15 136.397 74.65C136.797 73.95 137.147 73.6 137.447 73.6C138.047 73.6 138.347 74.4 138.347 76C138.347 76.8 138.197 77.75 137.897 78.85C137.697 79.85 137.297 80.85 136.697 81.85C135.297 84.25 133.647 86.9 131.747 89.8C129.847 92.6 127.897 95.4 125.897 98.2C124.497 100 122.647 102.05 120.347 104.35C118.147 106.65 115.747 108.65 113.147 110.35C110.647 112.05 108.197 112.9 105.797 112.9ZM171.2 112.9C167.8 112.9 165.45 111.9 164.15 109.9C162.95 107.8 162.35 105.4 162.35 102.7C162.35 99.8 162.8 96.45 163.7 92.65C164.7 88.75 165.9 84.75 167.3 80.65C168.8 76.45 170.3 72.55 171.8 68.95C172.3 67.75 172.75 66.45 173.15 65.05C173.65 63.65 173.9 62.4 173.9 61.3C173.9 59.3 173 58.3 171.2 58.3C170.5 58.3 169.7 58.45 168.8 58.75C167.9 58.95 166.85 59.4 165.65 60.1C163.55 61.1 161.55 62.5 159.65 64.3C157.75 66 156.45 67.3 155.75 68.2C154.45 69.8 153.2 71.6 152 73.6C150.8 75.5 149.75 77.45 148.85 79.45C146.85 83.75 145.25 87.85 144.05 91.75C142.95 95.55 141.9 98.8 140.9 101.5C140.3 103.2 139.7 104.95 139.1 106.75C138.5 108.55 137.95 110.3 137.45 112H122.9C122.9 112 123.25 110.75 123.95 108.25C124.65 105.75 125.5 103.25 126.5 100.75C131.1 88.85 135.45 76.7 139.55 64.3C143.65 51.9 148.6 40 154.4 28.6C157 23.5 159.8 18.8 162.8 14.5C165.9 10.2 169.15 6.8 172.55 4.29999C176.05 1.7 179.7 0.399997 183.5 0.399997C186.5 0.399997 188.55 1.1 189.65 2.5C190.85 3.8 191.45 5.45 191.45 7.45C191.45 9.65 191 11.95 190.1 14.35C189.2 16.75 188.3 18.8 187.4 20.5C185.6 24.1 183.25 28.15 180.35 32.65C177.45 37.15 174.4 41.35 171.2 45.25C170.5 46.15 169.3 47.6 167.6 49.6C165.9 51.5 164.15 53.45 162.35 55.45C160.65 57.45 159.3 59 158.3 60.1C161.6 57.7 164.45 55.85 166.85 54.55C169.25 53.25 171.3 52.35 173 51.85C175.9 51.05 178.3 50.65 180.2 50.65C185.9 50.65 188.75 53.15 188.75 58.15C188.75 60.25 188.15 62.75 186.95 65.65C186.35 67.25 185.5 69.4 184.4 72.1C183.3 74.8 182.15 77.7 180.95 80.8C179.85 83.8 178.9 86.7 178.1 89.5C177.4 92.3 177.05 94.6 177.05 96.4C177.05 97.5 177.2 98.5 177.5 99.4C177.9 100.2 178.6 100.6 179.6 100.6C180.3 100.6 181.3 100.25 182.6 99.55C185.4 97.95 188 95.7 190.4 92.8C192.9 89.9 195.1 86.8 197 83.5C199 80.2 200.7 77.2 202.1 74.5C202.4 73.8 202.75 73.45 203.15 73.45C203.65 73.45 203.9 74.3 203.9 76C203.9 76.8 203.8 77.75 203.6 78.85C203.4 79.85 203 80.85 202.4 81.85C201 84.25 199.15 87.2 196.85 90.7C194.65 94.2 192.15 97.65 189.35 101.05C186.55 104.35 183.6 107.15 180.5 109.45C177.4 111.75 174.3 112.9 171.2 112.9ZM153.95 59.05C158.95 53.15 164 46.85 169.1 40.15C174.3 33.35 178.6 26.45 182 19.45C182.2 18.95 182.65 17.95 183.35 16.45C184.05 14.95 184.7 13.3 185.3 11.5C185.9 9.6 186.2 8 186.2 6.7C186.2 4.99999 185.55 4.14999 184.25 4.14999C182.95 4.14999 181.4 5.04999 179.6 6.84999C177.9 8.65 176.15 11.05 174.35 14.05C172.05 17.85 169.7 22.25 167.3 27.25C164.9 32.15 162.55 37.35 160.25 42.85C158.05 48.35 155.95 53.75 153.95 59.05ZM242.522 112.9C239.422 112.9 237.272 111.7 236.072 109.3C234.972 106.9 234.422 103.95 234.422 100.45C234.422 97.25 234.722 94.1 235.322 91C235.622 89.6 235.922 88.2 236.222 86.8C236.622 85.3 237.072 83.75 237.572 82.15C235.872 85.25 234.072 88.25 232.172 91.15C230.372 94.05 228.522 96.6 226.622 98.8C223.422 102.7 220.022 105.95 216.422 108.55C212.922 111.15 209.422 112.45 205.922 112.45C203.122 112.45 200.722 111.45 198.722 109.45C196.822 107.35 195.872 103.75 195.872 98.65C195.872 93.45 196.772 88.1 198.572 82.6C200.372 77.1 202.872 72 206.072 67.3C209.372 62.5 213.222 58.65 217.622 55.75C222.122 52.85 227.022 51.4 232.322 51.4C234.022 51.4 235.872 51.65 237.872 52.15C239.872 52.65 241.722 53.6 243.422 55C245.122 56.3 246.272 58.15 246.872 60.55C246.972 60.35 247.072 60.2 247.172 60.1C247.372 60 247.522 59.9 247.622 59.8C249.022 57.6 250.622 55.75 252.422 54.25C254.222 52.75 256.222 52 258.422 52C259.522 52 261.072 52.05 263.072 52.15C265.072 52.25 266.522 52.25 267.422 52.15C266.922 52.55 266.222 53.35 265.322 54.55C264.522 55.75 263.772 57 263.072 58.3C262.372 59.5 261.822 60.45 261.422 61.15C258.722 66.35 256.272 71.5 254.072 76.6C251.872 81.7 250.172 86.6 248.972 91.3C248.672 92.3 248.472 93.25 248.372 94.15C248.272 94.95 248.222 95.75 248.222 96.55C248.222 99.15 249.072 100.45 250.772 100.45C252.372 100.45 254.372 99.45 256.772 97.45C260.272 94.65 263.322 91.15 265.922 86.95C268.622 82.75 270.972 78.7 272.972 74.8C273.372 74.1 273.722 73.75 274.022 73.75C274.622 73.75 274.922 74.6 274.922 76.3C274.922 77.1 274.772 78 274.472 79C274.272 80 273.922 80.95 273.422 81.85C272.022 84.25 270.172 87.2 267.872 90.7C265.672 94.2 263.172 97.65 260.372 101.05C257.572 104.35 254.622 107.15 251.522 109.45C248.522 111.75 245.522 112.9 242.522 112.9ZM212.672 99.85C212.972 99.95 213.422 100 214.022 100C215.922 100 217.972 99.2 220.172 97.6C222.372 96 224.572 93.95 226.772 91.45C228.972 88.85 230.922 86.25 232.622 83.65C237.022 76.65 240.272 71.4 242.372 67.9C244.472 64.4 245.672 62.4 245.972 61.9C245.472 60.2 244.572 58.95 243.272 58.15C242.072 57.35 240.622 56.95 238.922 56.95C236.722 56.95 234.372 57.55 231.872 58.75C229.472 59.95 227.422 61.4 225.722 63.1C223.122 65.7 220.622 69.05 218.222 73.15C215.922 77.25 214.022 81.3 212.522 85.3C211.122 89.3 210.422 92.65 210.422 95.35C210.422 97.85 211.172 99.35 212.672 99.85ZM307.57 112.9C304.17 112.9 301.82 111.9 300.52 109.9C299.32 107.8 298.72 105.4 298.72 102.7C298.72 99.4 299.37 95.45 300.67 90.85C301.97 86.15 303.47 81.45 305.17 76.75C306.97 71.95 308.57 67.7 309.97 64C310.37 63.1 310.57 62.15 310.57 61.15C310.57 60.05 310.22 59.25 309.52 58.75C308.82 58.25 307.92 58 306.82 58C305.22 58 303.42 58.5 301.42 59.5C298.32 61.1 295.37 63.65 292.57 67.15C289.77 70.65 287.52 74.3 285.82 78.1C283.92 82.4 282.22 86.7 280.72 91C279.22 95.3 278.02 98.8 277.12 101.5C276.52 103.2 275.97 104.95 275.47 106.75C274.97 108.55 274.47 110.3 273.97 112H259.42C259.42 112 259.77 110.75 260.47 108.25C261.07 105.75 261.87 103.25 262.87 100.75C264.57 96.35 266.27 91.95 267.97 87.55C269.77 83.15 271.32 79.25 272.62 75.85C273.02 74.85 273.62 73 274.42 70.3C275.32 67.5 276.12 64.6 276.82 61.6C277.62 58.6 278.02 56.15 278.02 54.25C278.02 53.15 277.87 52.4 277.57 52C278.47 52 279.47 52 280.57 52C281.77 51.9 282.87 51.85 283.87 51.85C285.27 51.85 286.57 51.9 287.77 52C289.07 52.1 289.92 52.35 290.32 52.75C291.52 53.65 292.12 54.95 292.12 56.65C292.12 57.85 291.87 59.05 291.37 60.25C290.97 61.45 290.67 62.45 290.47 63.25C291.87 61.95 293.32 60.7 294.82 59.5C296.32 58.3 298.62 56.75 301.72 54.85C303.52 53.75 305.77 52.85 308.47 52.15C311.17 51.45 313.62 51.1 315.82 51.1C321.52 51.1 324.37 53.75 324.37 59.05C324.37 59.95 324.27 60.95 324.07 62.05C323.97 63.15 323.67 64.35 323.17 65.65C322.67 67.25 321.87 69.45 320.77 72.25C319.67 75.05 318.52 78.05 317.32 81.25C316.22 84.35 315.27 87.3 314.47 90.1C313.67 92.9 313.27 95.15 313.27 96.85C313.27 99.25 314.17 100.45 315.97 100.45C317.57 100.45 319.57 99.45 321.97 97.45C324.27 95.55 326.27 93.5 327.97 91.3C330.07 88.7 331.97 85.95 333.67 83.05C335.47 80.05 337.02 77.3 338.32 74.8C338.82 74 339.17 73.6 339.37 73.6C339.97 73.6 340.27 74.45 340.27 76.15C340.27 76.95 340.12 77.9 339.82 79C339.62 80 339.27 80.95 338.77 81.85C337.37 84.25 335.72 86.9 333.82 89.8C331.92 92.7 329.97 95.5 327.97 98.2C326.57 100.1 324.72 102.2 322.42 104.5C320.12 106.8 317.67 108.8 315.07 110.5C312.47 112.1 309.97 112.9 307.57 112.9Z" fill="black"/>
</svg>
