<svg width="393" height="139" viewBox="0 0 393 139" fill="none" xmlns="http://www.w3.org/2000/svg">
<path d="M31.7 111C26.7 111 22.05 110.55 17.75 109.65C13.45 108.75 9.85 107.25 6.95 105.15C4.95 103.65 3.4 101.75 2.3 99.45C1.3 97.15 0.8 94.8 0.8 92.4C0.8 89.4 1.65 86.6 3.35 84C5.05 81.4 7.75 79.65 11.45 78.75C11.95 78.65 12.4 78.6 12.8 78.6C13.3 78.5 13.75 78.45 14.15 78.45C16.15 78.45 17.9 78.9 19.4 79.8C21 80.7 22.1 81.75 22.7 82.95C22.3 83.25 21.75 83.8 21.05 84.6C20.35 85.3 19.9 85.9 19.7 86.4C18.2 88.9 17.45 91.4 17.45 93.9C17.45 97.3 18.75 100.1 21.35 102.3C24.05 104.4 27.55 105.45 31.85 105.45C35.75 105.45 39.4 104.5 42.8 102.6C46.3 100.6 49.1 97.95 51.2 94.65C53.4 91.35 54.5 87.55 54.5 83.25C54.5 80.05 53.75 76.65 52.25 73.05C50.95 69.95 49.15 67.2 46.85 64.8C44.65 62.4 42.55 60.15 40.55 58.05C37.85 55.15 35.25 52.35 32.75 49.65C30.35 46.85 28.35 43.85 26.75 40.65C25.25 37.35 24.5 33.65 24.5 29.55C24.5 25.65 25.3 21.85 26.9 18.15C28.6 14.45 31 11.3 34.1 8.69999C37.6 5.69999 41.6 3.59999 46.1 2.39999C50.6 1.2 55.3 0.599997 60.2 0.599997C66.3 0.599997 71.1 1.4 74.6 2.99999C78.2 4.49999 80.75 6.44999 82.25 8.85C83.85 11.25 84.65 13.8 84.65 16.5C84.65 19.1 84.05 21.6 82.85 24C81.75 26.4 80.2 28.45 78.2 30.15C76.2 31.75 74 32.75 71.6 33.15C71.2 33.25 70.8 33.3 70.4 33.3C70 33.3 69.55 33.3 69.05 33.3C66.85 33.3 64.9 32.8 63.2 31.8C61.6 30.8 60.8 29.1 60.8 26.7C60.8 26.4 60.8 26.05 60.8 25.65C60.9 25.25 61 24.85 61.1 24.45C62.9 24.45 64.75 23.8 66.65 22.5C68.55 21.2 69.8 19.75 70.4 18.15C70.9 16.85 71.15 15.65 71.15 14.55C71.15 11.85 69.9 9.75 67.4 8.25C65 6.64999 62.15 5.84999 58.85 5.84999C54.95 5.84999 51.45 6.69999 48.35 8.39999C45.35 10 43 12.15 41.3 14.85C39.6 17.45 38.75 20.3 38.75 23.4C38.75 26.5 39.7 29.5 41.6 32.4C43.2 34.7 45.2 37.1 47.6 39.6C50 42 52.45 44.35 54.95 46.65C57.45 48.85 59.6 50.9 61.4 52.8C65.5 56.8 68.45 60.9 70.25 65.1C72.05 69.2 72.95 73.25 72.95 77.25C72.95 81.85 71.85 86.2 69.65 90.3C67.55 94.3 64.6 97.85 60.8 100.95C57 104.05 52.6 106.5 47.6 108.3C42.6 110.1 37.3 111 31.7 111ZM121.057 108.9C117.657 108.9 115.307 107.9 114.007 105.9C112.807 103.8 112.207 101.4 112.207 98.7C112.207 95.4 112.857 91.45 114.157 86.85C115.457 82.15 116.957 77.45 118.657 72.75C120.457 67.95 122.057 63.7 123.457 60C123.857 59.1 124.057 58.15 124.057 57.15C124.057 56.05 123.707 55.25 123.007 54.75C122.307 54.25 121.407 54 120.307 54C118.707 54 116.907 54.5 114.907 55.5C111.807 57.1 108.857 59.65 106.057 63.15C103.257 66.65 101.007 70.3 99.3066 74.1C97.4066 78.4 95.7066 82.7 94.2066 87C92.7066 91.3 91.5066 94.8 90.6066 97.5C90.0066 99.2 89.4566 100.95 88.9566 102.75C88.4566 104.55 87.9566 106.3 87.4566 108H72.9066C72.9066 108 73.2566 106.75 73.9566 104.25C74.5566 101.75 75.3566 99.25 76.3566 96.75C78.0566 92.35 79.7566 87.95 81.4566 83.55C83.2566 79.15 84.8066 75.25 86.1066 71.85C86.5066 70.85 87.1066 69 87.9066 66.3C88.8066 63.5 89.6066 60.6 90.3066 57.6C91.1066 54.6 91.5066 52.15 91.5066 50.25C91.5066 49.15 91.3566 48.4 91.0566 48C91.9566 48 92.9566 48 94.0566 48C95.2566 47.9 96.3566 47.85 97.3566 47.85C98.7566 47.85 100.057 47.9 101.257 48C102.557 48.1 103.407 48.35 103.807 48.75C105.007 49.65 105.607 50.95 105.607 52.65C105.607 53.85 105.357 55.05 104.857 56.25C104.457 57.45 104.157 58.45 103.957 59.25C105.357 57.95 106.807 56.7 108.307 55.5C109.807 54.3 112.107 52.75 115.207 50.85C117.007 49.75 119.257 48.85 121.957 48.15C124.657 47.45 127.107 47.1 129.307 47.1C135.007 47.1 137.857 49.75 137.857 55.05C137.857 55.95 137.757 56.95 137.557 58.05C137.457 59.15 137.157 60.35 136.657 61.65C136.157 63.25 135.357 65.45 134.257 68.25C133.157 71.05 132.007 74.05 130.807 77.25C129.707 80.35 128.757 83.3 127.957 86.1C127.157 88.9 126.757 91.15 126.757 92.85C126.757 95.25 127.657 96.45 129.457 96.45C131.057 96.45 133.057 95.45 135.457 93.45C137.757 91.55 139.757 89.5 141.457 87.3C143.557 84.7 145.457 81.95 147.157 79.05C148.957 76.05 150.507 73.3 151.807 70.8C152.307 70 152.657 69.6 152.857 69.6C153.457 69.6 153.757 70.45 153.757 72.15C153.757 72.95 153.607 73.9 153.307 75C153.107 76 152.757 76.95 152.257 77.85C150.857 80.25 149.207 82.9 147.307 85.8C145.407 88.7 143.457 91.5 141.457 94.2C140.057 96.1 138.207 98.2 135.907 100.5C133.607 102.8 131.157 104.8 128.557 106.5C125.957 108.1 123.457 108.9 121.057 108.9ZM151.439 138.15C148.939 138.15 146.289 137.75 143.489 136.95C140.789 136.25 138.539 135 136.739 133.2C134.839 131.4 133.889 129 133.889 126C133.889 123.9 134.539 121.95 135.839 120.15C137.139 118.35 138.939 117.45 141.239 117.45C142.639 117.45 143.939 117.8 145.139 118.5C146.339 119.3 147.139 120.25 147.539 121.35C147.339 121.45 147.039 121.75 146.639 122.25C146.239 122.75 145.989 123.1 145.889 123.3C145.189 124.7 144.839 126.15 144.839 127.65C144.839 129.55 145.489 131.05 146.789 132.15C148.189 133.35 149.939 133.95 152.039 133.95C154.739 133.95 157.539 132.95 160.439 130.95C163.639 128.65 166.139 125.65 167.939 121.95C169.839 118.35 171.339 115.1 172.439 112.2L180.989 89.4C179.189 91.6 177.289 93.85 175.289 96.15C173.389 98.35 172.189 99.7 171.689 100.2C167.889 104 164.489 106.4 161.489 107.4C158.489 108.4 155.839 108.9 153.539 108.9C151.139 108.9 149.089 107.85 147.389 105.75C145.789 103.65 144.989 100.6 144.989 96.6C144.989 94.6 145.289 92.05 145.889 88.95C146.489 85.85 147.339 82.55 148.439 79.05C149.539 75.45 150.789 71.95 152.189 68.55C153.689 65.05 155.289 61.95 156.989 59.25C159.589 55.15 162.489 52.5 165.689 51.3C168.889 50.1 172.939 49.5 177.839 49.5C178.239 49.5 178.439 49.7 178.439 50.1C178.439 50.5 178.139 51 177.539 51.6C176.139 52.8 174.439 54.9 172.439 57.9C170.439 60.9 168.489 64.2 166.589 67.8C164.789 71.4 163.289 74.85 162.089 78.15C161.289 80.45 160.489 83.15 159.689 86.25C158.989 89.35 158.639 92.05 158.639 94.35C158.639 95.95 158.839 97.25 159.239 98.25C159.739 99.15 160.489 99.6 161.489 99.6C163.089 99.6 165.289 98.4 168.089 96C172.289 92.5 176.089 88.2 179.489 83.1C182.889 78 185.789 72.7 188.189 67.2C189.589 64 190.739 61.3 191.639 59.1C192.539 56.8 193.539 54.95 194.639 53.55C195.739 52.15 197.289 51.15 199.289 50.55C201.289 49.85 203.989 49.5 207.389 49.5H213.539C211.639 50.7 209.739 52.95 207.839 56.25C205.939 59.45 204.139 63.25 202.439 67.65C201.139 70.85 199.789 74.35 198.389 78.15C197.089 81.95 195.739 85.8 194.339 89.7C193.139 93.3 191.839 97.25 190.439 101.55C189.039 105.75 187.439 109.85 185.639 113.85C183.839 117.95 181.739 121.5 179.339 124.5C175.939 128.7 171.789 132 166.889 134.4C161.989 136.9 156.839 138.15 151.439 138.15ZM256.409 108.9C253.409 108.9 251.309 107.8 250.109 105.6C249.009 103.3 248.459 100.45 248.459 97.05C248.459 95.45 248.559 93.85 248.759 92.25C248.959 90.55 249.209 88.85 249.509 87.15C249.709 85.65 250.109 83.85 250.709 81.75C251.309 79.55 252.009 77.2 252.809 74.7C250.909 78.5 248.709 82.4 246.209 86.4C243.709 90.3 240.959 93.95 237.959 97.35C235.059 100.65 232.009 103.35 228.809 105.45C225.709 107.45 222.559 108.45 219.359 108.45C216.559 108.45 214.159 107.45 212.159 105.45C210.259 103.35 209.309 99.75 209.309 94.65C209.309 89.45 210.209 84.1 212.009 78.6C213.809 73.1 216.309 68 219.509 63.3C222.809 58.5 226.659 54.65 231.059 51.75C235.559 48.85 240.459 47.4 245.759 47.4C247.959 47.4 250.409 47.85 253.109 48.75C255.809 49.65 257.859 51.4 259.259 54C259.759 53.2 260.159 52.4 260.459 51.6C260.759 50.8 261.059 50.1 261.359 49.5C263.759 44.2 265.809 39.2 267.509 34.5C269.209 29.8 270.709 26.15 272.009 23.55C273.709 20.15 275.059 17.6 276.059 15.9C277.059 14.1 277.959 12.85 278.759 12.15C279.659 11.45 280.659 10.95 281.759 10.65C282.659 10.45 283.659 10.3 284.759 10.2C285.859 10.1 287.009 10.05 288.209 10.05C289.409 10.05 290.759 10.05 292.259 10.05C293.859 10.05 294.859 9.99999 295.259 9.89999C293.559 11.1 291.559 13.55 289.259 17.25C286.959 20.95 284.559 25.4 282.059 30.6C279.559 35.8 277.109 41.35 274.709 47.25C272.409 53.05 270.259 58.85 268.259 64.65C266.359 70.35 264.809 75.55 263.609 80.25C262.509 84.95 261.959 88.75 261.959 91.65C261.959 94.85 262.859 96.45 264.659 96.45C265.859 96.45 267.259 95.85 268.859 94.65C270.559 93.45 272.109 92.1 273.509 90.6C274.909 89.1 275.909 88 276.509 87.3C278.509 84.7 280.409 81.95 282.209 79.05C284.009 76.05 285.559 73.25 286.859 70.65C287.359 69.85 287.709 69.45 287.909 69.45C288.609 69.45 288.959 70.35 288.959 72.15C288.959 74.05 288.459 75.85 287.459 77.55C286.059 79.95 284.359 82.65 282.359 85.65C280.459 88.55 278.509 91.4 276.509 94.2C275.109 96 273.259 98.05 270.959 100.35C268.759 102.65 266.359 104.65 263.759 106.35C261.259 108.05 258.809 108.9 256.409 108.9ZM226.109 95.85C226.409 95.95 226.859 96 227.459 96C230.259 96 233.509 94.15 237.209 90.45C241.009 86.65 244.809 81.7 248.609 75.6C249.409 74.4 250.359 72.7 251.459 70.5C252.559 68.3 253.709 65.9 254.909 63.3C256.209 60.6 257.409 58.1 258.509 55.8C257.809 54.8 256.909 54.1 255.809 53.7C254.809 53.3 253.709 53.1 252.509 53.1C250.309 53.1 247.959 53.7 245.459 54.9C242.959 56 240.859 57.4 239.159 59.1C236.559 61.7 234.059 65.05 231.659 69.15C229.359 73.25 227.459 77.3 225.959 81.3C224.559 85.3 223.859 88.65 223.859 91.35C223.859 93.85 224.609 95.35 226.109 95.85ZM316.497 105.9C311.897 108.3 307.047 109.5 301.947 109.5C297.647 109.5 293.647 108.45 289.947 106.35C286.247 104.25 283.747 100.9 282.447 96.3C281.847 94.2 281.547 92 281.547 89.7C281.547 85.9 282.197 82 283.497 78C284.897 73.9 286.697 70.15 288.897 66.75C292.297 61.45 296.597 57.05 301.797 53.55C306.997 50.05 312.747 48.3 319.047 48.3C323.747 48.3 327.397 49.5 329.997 51.9C332.597 54.3 333.897 57.1 333.897 60.3C333.897 64.1 332.597 67.45 329.997 70.35C327.497 73.15 324.197 75.3 320.097 76.8C318.097 77.5 315.947 78.05 313.647 78.45C311.447 78.75 309.347 78.9 307.347 78.9C303.247 78.9 300.097 78.35 297.897 77.25C295.997 82.15 295.047 86.65 295.047 90.75C295.047 94.45 295.897 97.5 297.597 99.9C299.297 102.2 301.997 103.35 305.697 103.35C308.797 103.35 311.847 102.5 314.847 100.8C317.947 99.1 320.797 97 323.397 94.5C326.097 92 328.347 89.6 330.147 87.3C331.547 85.6 332.747 84 333.747 82.5C334.747 81 335.797 79.3 336.897 77.4C337.997 75.4 339.297 72.95 340.797 70.05C341.197 69.35 341.547 69 341.847 69C342.447 69 342.747 69.8 342.747 71.4C342.747 72.3 342.597 73.3 342.297 74.4C342.097 75.4 341.697 76.45 341.097 77.55C339.697 80.05 337.997 82.8 335.997 85.8C334.097 88.7 332.147 91.5 330.147 94.2C328.347 96.6 326.297 98.8 323.997 100.8C321.697 102.8 319.197 104.5 316.497 105.9ZM302.847 73.95C303.347 74.25 303.897 74.45 304.497 74.55C305.097 74.65 305.697 74.7 306.297 74.7C308.297 74.7 310.297 74.25 312.297 73.35C314.297 72.35 315.997 71.35 317.397 70.35C319.697 68.75 321.647 66.85 323.247 64.65C324.847 62.45 325.747 59.95 325.947 57.15C326.047 55.95 325.747 54.95 325.047 54.15C324.447 53.25 323.347 52.8 321.747 52.8C320.947 52.8 319.947 52.95 318.747 53.25C317.147 53.65 315.547 54.4 313.947 55.5C312.347 56.6 310.797 57.9 309.297 59.4C308.797 59.9 307.897 60.9 306.597 62.4C305.397 63.8 304.247 65.4 303.147 67.2C302.047 68.9 301.497 70.4 301.497 71.7C301.497 72.8 301.947 73.55 302.847 73.95ZM360.057 109.05C356.857 109.05 354.557 107.7 353.157 105C352.057 102.6 351.507 99.75 351.507 96.45C351.507 92.75 352.057 88.65 353.157 84.15C354.257 79.65 355.757 75.05 357.657 70.35C358.357 68.65 359.257 66.5 360.357 63.9C361.557 61.3 362.957 58.75 364.557 56.25C363.157 57.45 361.507 58.45 359.607 59.25C357.707 59.95 355.857 60.3 354.057 60.3C352.657 60.3 351.507 60.1 350.607 59.7C349.807 61.3 348.507 63.9 346.707 67.5C344.907 71.1 342.507 75.35 339.507 80.25C339.207 80.75 338.907 80.75 338.607 80.25C338.407 79.65 338.307 78.85 338.307 77.85C338.307 77.05 338.407 76.2 338.607 75.3C338.807 74.4 339.107 73.55 339.507 72.75C340.507 70.85 341.507 68.9 342.507 66.9C343.507 64.8 344.407 62.95 345.207 61.35C346.007 59.75 346.457 58.75 346.557 58.35C344.757 57.45 343.407 56.2 342.507 54.6C341.607 52.9 341.157 51.25 341.157 49.65C341.157 48.05 341.507 46.6 342.207 45.3C343.007 44 344.157 43 345.657 42.3C346.557 42 347.407 41.85 348.207 41.85C350.407 41.85 352.207 42.55 353.607 43.95C353.507 44.35 353.407 44.8 353.307 45.3C353.307 45.7 353.307 46.15 353.307 46.65C353.307 49.75 354.557 52.05 357.057 53.55C359.557 55.05 362.257 55.6 365.157 55.2C366.557 53.2 368.157 51.45 369.957 49.95C371.757 48.45 373.707 47.7 375.807 47.7C376.907 47.7 378.457 47.75 380.457 47.85C382.557 47.95 384.057 47.95 384.957 47.85C384.357 48.25 383.657 49.05 382.857 50.25C382.057 51.45 381.307 52.7 380.607 54C379.907 55.3 379.357 56.3 378.957 57C376.257 62.2 373.757 67.4 371.457 72.6C369.157 77.7 367.407 82.6 366.207 87.3C366.007 88.2 365.807 89.05 365.607 89.85C365.507 90.55 365.457 91.3 365.457 92.1C365.457 95.1 366.457 96.6 368.457 96.6C369.857 96.6 371.857 95.6 374.457 93.6C376.757 91.7 378.807 89.6 380.607 87.3C382.607 84.7 384.507 81.9 386.307 78.9C388.107 75.9 389.657 73.15 390.957 70.65C391.457 69.85 391.807 69.45 392.007 69.45C392.607 69.45 392.907 70.35 392.907 72.15C392.907 72.85 392.807 73.7 392.607 74.7C392.407 75.7 392.057 76.65 391.557 77.55C390.057 80.05 388.357 82.8 386.457 85.8C384.557 88.7 382.607 91.55 380.607 94.35C379.307 96.15 377.457 98.2 375.057 100.5C372.757 102.8 370.257 104.8 367.557 106.5C364.957 108.2 362.457 109.05 360.057 109.05Z" fill="black"/>
</svg>
